<?xml version="1.0" encoding="UTF-8"?>
<svg id="Camada_2" data-name="Camada 2" xmlns="http://www.w3.org/2000/svg" xmlns:xlink="http://www.w3.org/1999/xlink" viewBox="0 0 500 500">
  <defs>
    <style>
      .cls-1 {
        fill: url(#linear-gradient-2);
      }

      .cls-2 {
        fill: url(#linear-gradient-3);
      }

      .cls-3 {
        fill: url(#linear-gradient);
      }
    </style>
    <linearGradient id="linear-gradient" x1="153.32" y1="-100.65" x2="606.78" y2="333.38" gradientUnits="userSpaceOnUse">
      <stop offset="0" stop-color="#ffe088"/>
      <stop offset=".21" stop-color="#fab744"/>
      <stop offset=".38" stop-color="#ea5578"/>
      <stop offset=".52" stop-color="#e93e8f"/>
      <stop offset=".74" stop-color="#7c4997"/>
      <stop offset="1" stop-color="#4f53a0"/>
    </linearGradient>
    <linearGradient id="linear-gradient-2" x1="25.37" y1="33.03" x2="478.82" y2="467.06" xlink:href="#linear-gradient"/>
    <linearGradient id="linear-gradient-3" x1="24.39" y1="34.05" x2="477.84" y2="468.08" xlink:href="#linear-gradient"/>
  </defs>
  <g id="Camada_1-2" data-name="Camada 1">
    <g>
      <path class="cls-3" d="M382.37,89.28c-16.19,0-29.31,13.12-29.31,29.31s13.13,29.31,29.31,29.31,29.31-13.12,29.31-29.31-13.13-29.31-29.31-29.31Z"/>
      <path class="cls-1" d="M252.05,126.87c-67.9,0-123.14,55.24-123.14,123.13s55.24,123.13,123.14,123.13,123.13-55.24,123.13-123.13-55.24-123.13-123.13-123.13Zm0,202.01c-43.49,0-78.88-35.38-78.88-78.88s35.38-78.87,78.88-78.87,78.87,35.38,78.87,78.87-35.38,78.88-78.87,78.88Z"/>
      <path class="cls-2" d="M349.8,500H150.18C67.37,500,0,432.63,0,349.82V150.18C0,67.37,67.37,0,150.18,0h199.62c82.81,0,150.19,67.37,150.19,150.18v199.63c0,82.81-67.38,150.18-150.19,150.18ZM150.18,47.04c-56.88,0-103.15,46.27-103.15,103.14v199.63c0,56.88,46.27,103.15,103.15,103.15h199.62c56.88,0,103.15-46.27,103.15-103.15V150.18c0-56.88-46.27-103.14-103.15-103.14H150.18Z"/>
    </g>
  </g>
</svg>