<?xml version="1.0" encoding="UTF-8"?>
<svg id="Camada_2" data-name="Camada 2" xmlns="http://www.w3.org/2000/svg" viewBox="0 0 500 498.64">
  <defs>
    <style>
      .cls-1 {
        fill: #0e76a8;
      }
    </style>
  </defs>
  <g id="Camada_2-2" data-name="Camada 2">
    <g id="Camada_1-2" data-name="Camada 1-2">
      <g>
        <path class="cls-1" d="M276.12,210.56c6.93-7.79,12.64-15.69,19.76-22.4,21.88-20.62,47.76-31.02,77.97-30.77,16.6,.14,33.02,1.34,49.03,5.97,36.62,10.59,57.9,35.8,68.04,71.56,7.61,26.83,9.02,54.37,9.06,82,.1,58.28-.17,116.55-.04,174.83,.01,5.46-1.52,6.89-6.89,6.84-30.02-.25-60.05-.26-90.07,0-5.28,.05-6.42-1.59-6.41-6.58,.17-55.45,.21-110.91,.03-166.36-.05-13.9-.93-27.78-4.83-41.3-7.18-24.89-25-37.57-51.07-36.19-35.6,1.88-54.12,19.51-58.66,55.71-1.08,8.65-1.6,17.3-1.59,26.01,.05,53.93-.06,107.86,.14,161.79,.02,5.38-1.33,6.96-6.82,6.92-30.24-.27-60.48-.23-90.72-.02-4.85,.03-6.25-1.27-6.24-6.18,.13-106.77,.14-213.55,0-320.32,0-5.28,1.73-6.51,6.72-6.47,28.72,.21,57.44,.24,86.15-.02,5.28-.05,6.65,1.66,6.53,6.67-.29,12.76-.1,25.53-.1,38.29v.02Z"/>
        <path class="cls-1" d="M111.62,332.59c0,52.82-.09,105.65,.13,158.47,.02,5.87-1.44,7.65-7.51,7.58-30.01-.33-60.02-.26-90.03-.04-4.81,.03-6.26-1.17-6.25-6.14,.14-106.95,.13-213.9,.03-320.85,0-4.43,1.07-6,5.77-5.97,30.45,.2,60.9,.26,91.34-.04,5.85-.06,6.65,2.21,6.63,7.23-.15,53.26-.09,106.51-.09,159.77h-.02Z"/>
        <path class="cls-1" d="M119.89,59.64c.03,33.16-26.89,60.18-59.97,60.19C27.26,119.85,.11,92.81,0,60.16-.11,27.15,27.02-.03,60.05,0c32.79,.03,59.81,26.96,59.85,59.64h0Z"/>
      </g>
    </g>
  </g>
</svg>