<?xml version="1.0" encoding="UTF-8"?>
<svg id="Camada_2" data-name="Camada 2" xmlns="http://www.w3.org/2000/svg" viewBox="0 0 419.07 164.41">
  <defs>
    <style>
      .cls-1 {
        fill: #f1c40f;
      }

      .cls-1, .cls-2 {
        font-family: FranklinGothic-HeavyItalic, 'Franklin Gothic Heavy';
        font-size: 90px;
        font-style: italic;
        font-weight: 800;
      }

      .cls-3 {
        fill: #34495e;
      }

      .cls-4 {
        letter-spacing: -.03em;
      }

      .cls-2 {
        fill: #48c9b0;
      }
    </style>
  </defs>
  <g id="OBJECTS">
    <g>
      <path class="cls-3" d="M86.32,88.5c1.12-3.38,3.54-4.54,6.99-4.52,14.17,.08,28.33,.03,42.5,.04,4.64,0,6.11,1.17,7.23,5.62,1.73,6.89,3.48,13.77,5.21,20.66,.15,.61,.19,1.25,.78,1.83,4.71-8.93,9.4-17.81,14.08-26.7,.82-1.55,1.62-3.11,2.45-4.66,1.7-3.17,3.38-4.24,6.19-3.85,2.89,.4,4.11,2.45,4.82,4.99,2.88,10.3,5.78,20.59,8.67,30.88,1.52,5.41,3.04,10.82,5.03,16.2,.39-3.36,.8-6.72,1.17-10.08,2.38-21.7,4.76-43.4,7.13-65.1,1.67-15.34,3.32-30.69,4.98-46.03,.12-1.11,.23-2.23,.47-3.33,.56-2.53,2.64-4.28,5.06-4.35,2.58-.07,4.99,1.53,5.45,4.12,.95,5.35,1.65,10.74,2.4,16.12,2.35,16.78,4.67,33.57,7,50.35,.63,4.51,1.3,9.02,1.82,13.55,.19,1.64,.71,2.22,2.5,2.19,8.48-.12,16.97-.07,25.45-.04,3.95,.01,6.23,1.77,6.52,4.89,.29,3.05-1.6,5.6-4.67,5.85-2.94,.24-5.91,.16-8.87,.17-7.92,.02-15.85,.01-23.77,0-4.8,0-6.52-1.37-7.2-6.11-1.73-12.03-3.35-24.07-5.02-36.1-.17-1.25-.39-2.5-.85-3.74-1.15,10.54-2.31,21.08-3.46,31.63-1.69,15.42-3.39,30.84-5.08,46.26-1.04,9.46-2.05,18.92-3.1,28.38-.13,1.18-.23,2.43-.69,3.51-.93,2.17-2.7,3.3-5.11,3.28-2.46-.02-4.39-1.49-5.19-4.2-1.51-5.13-2.91-10.29-4.36-15.43-4.32-15.36-8.64-30.72-12.96-46.08-.1-.36-.24-.72-.49-1.47-.59,1.03-1.03,1.73-1.41,2.45-5.16,9.82-10.33,19.63-15.47,29.46-.99,1.89-2.13,3.6-4.42,4.04-3.17,.61-5.69-1.17-6.61-4.76-2.58-10.13-5.18-20.26-7.58-30.44-.55-2.33-1.33-3.17-3.87-3.14-12.24,.17-24.49,.02-36.73,.11-3.45,.02-5.87-1.14-6.99-4.52v-1.92Z"/>
      <path class="cls-3" d="M317.58,97.31c-2.87,0-5.75,.05-8.62-.01-3.71-.09-6.04-2.19-6.09-5.36-.05-3.26,2.34-5.47,6.17-5.51,5.67-.06,11.34-.07,17.01,0,3.68,.05,6.06,2.21,6.13,5.35,.06,3.19-2.41,5.4-6.21,5.53-.16,0-.32,0-.48,0-2.64,0-5.27,0-7.91,0Z"/>
      <path class="cls-3" d="M280.82,97.31c-2.63,0-5.27,.04-7.9,0-3.86-.07-6.27-2.16-6.33-5.37-.05-3.22,2.37-5.45,6.19-5.49,5.27-.07,10.54-.06,15.8,0,3.83,.04,6.22,2.23,6.2,5.48-.03,3.23-2.43,5.32-6.3,5.39-2.55,.05-5.11,0-7.66,0Z"/>
    </g>
    <text class="cls-2" transform="translate(0 75.01)"><tspan x="0" y="0">VI</tspan><tspan class="cls-4" x="82.44" y="0">V</tspan><tspan x="134.34" y="0">A</tspan></text>
    <text class="cls-1" transform="translate(231.73 77.36)"><tspan x="0" y="0">BEM</tspan></text>
  </g>
</svg>